<mxfile host="app.diagrams.net" modified="2023-11-02T01:55:31.035Z" agent="Mozilla/5.0 (Windows NT 10.0; Win64; x64; rv:109.0) Gecko/20100101 Firefox/118.0" version="22.0.8" etag="DgnjJOEPokghfTJJaz2p" type="github">
  <diagram name="Page-1" id="1lwiKQlauPzeevP80rFf">
    <mxGraphModel>
      <root>
        <mxCell id="0" />
        <mxCell id="1" parent="0" />
      </root>
    </mxGraphModel>
  </diagram>
</mxfile>
